<?xml version="1.0" standalone="no"?>
<!DOCTYPE svg PUBLIC "-//W3C//DTD SVG 20010904//EN"
 "http://www.w3.org/TR/2001/REC-SVG-20010904/DTD/svg10.dtd">
<svg version="1.0" xmlns="http://www.w3.org/2000/svg"
 width="160.000000pt" height="146.000000pt" viewBox="0 0 160.000000 146.000000"
 preserveAspectRatio="xMidYMid meet">
<metadata>
Created by potrace 1.13, written by Peter Selinger 2001-2015
</metadata>
<g transform="translate(0.000000,146.000000) scale(0.100000,-0.100000)"
fill="#000000" stroke="none">
<path d="M0 730 l0 -730 800 0 800 0 0 730 0 730 -800 0 -800 0 0 -730z m1342
600 c9 -19 22 -73 27 -120 11 -81 15 -392 7 -401 -3 -2 -7 -126 -9 -274 -3
-149 -11 -303 -18 -343 -11 -70 -13 -73 -37 -70 -32 4 -37 20 -57 198 -13 117
-37 450 -33 468 3 15 -15 42 -28 42 -29 0 -44 43 -44 129 0 99 23 190 56 226
13 15 24 32 24 40 0 25 32 109 48 128 22 25 44 17 64 -23z m-346 -86 l124
-116 0 -504 0 -504 -455 0 -455 0 0 44 c0 44 0 45 -36 48 -43 4 -65 29 -48 56
6 10 26 18 48 20 l36 3 0 115 0 114 -28 0 c-40 0 -65 21 -60 51 3 21 9 24 46
27 l42 3 0 114 0 114 -42 3 c-37 3 -43 6 -46 27 -5 30 20 51 60 51 l28 0 0
114 0 115 -36 3 c-72 6 -72 70 0 76 l36 3 0 70 0 69 331 0 331 0 124 -116z
m124 20 l0 -96 -77 70 c-43 38 -89 82 -102 96 l-24 26 101 0 102 0 0 -96z"/>
</g>
</svg>
